<svg xmlns="http://www.w3.org/2000/svg" viewBox="0 0 150 150">
  <path
    d="M30.49,37.78a26.37,26.37,0,0,1,.9,10,66.05,66.05,0,0,1-1.95,10.54q-1.46,5.41-3.25,11t-3.1,11.11a67.25,67.25,0,0,0-1.25,7.3,48.77,48.77,0,0,0-.3,7.65,46.3,46.3,0,0,0,.9,7.5,23.86,23.86,0,0,0,2.45,6.75c.26.53.36.8.3.8a.57.57,0,0,1-.4-.2c-.14-.14-.24-.2-.3-.2a21.75,21.75,0,0,1-4.1-7.15,32,32,0,0,1-1.6-8,40.57,40.57,0,0,1,.25-8.3c.36-2.81.85-5.54,1.45-8.2q1.29-5.51,3-11t3.15-10.6q1.44-5.16,2.45-10a41.36,41.36,0,0,0,.9-9.2c0-.41,0-.6.1-.6s.15,0,.25.25A1.64,1.64,0,0,1,30.49,37.78ZM28,110.39a1.53,1.53,0,0,1-.6-.2.62.62,0,0,1-.3-.3,18.54,18.54,0,0,1-2.05-2.8,13.47,13.47,0,0,1-1.25-4.2,18.1,18.1,0,0,1-.25-2.8,32.91,32.91,0,0,1,.05-3.31,16.08,16.08,0,0,1,.35-2.69c.16-.74.38-1.1.65-1.1.06,0,.15.16.25.5a8.74,8.74,0,0,1,.25,1.15c.06.43.11.86.15,1.3s.05.71.05.84c.13,1.47.25,2.67.35,3.61s.21,1.76.35,2.5a28.06,28.06,0,0,0,2,6.7,2.3,2.3,0,0,1,.15.5C28.17,110.28,28.12,110.39,28,110.39Zm49.8,1.6a.31.31,0,0,1-.2.29l-.4.21a19,19,0,0,1-7.35,1.25,26.29,26.29,0,0,1-6.9-1.21,32.68,32.68,0,0,1-6.4-2.75c-2-1.13-3.95-2.26-5.75-3.39a41.48,41.48,0,0,1-5.2-3.9q-2.51-2.2-4.9-4.5c-1.6-1.54-3.19-3-4.75-4.5a52.28,52.28,0,0,0-4.65-3.9L28.19,100c-.14.33-.25.63-.35.9s-.22.36-.35.3-.22-.25-.25-.55a7.27,7.27,0,0,1,0-1,57.46,57.46,0,0,1,.5-5.91c.26-2,.6-4,1-6-.4-.26-.9-.56-1.5-.89s-1.17-.67-1.7-1a2.71,2.71,0,0,1-.5-.36c-.2-.16-.27-.31-.2-.44s.16-.1.5-.1a16.33,16.33,0,0,1,7.05,2.35,54.26,54.26,0,0,1,6.9,4.9q3.45,2.85,6.95,6.15t7.3,6.3a38.52,38.52,0,0,0,11,5.84,27.5,27.5,0,0,0,12.6,1.36C77.55,111.75,77.79,111.78,77.79,112ZM28.39,82.28a56.66,56.66,0,0,1,7.2,1.46,16.45,16.45,0,0,1,6.5,3.54q3.49,3,7.2,6.66t6.8,7.15a7.23,7.23,0,0,1,.6.75c.26.36.33.65.2.85s-.32.11-.75,0a2.69,2.69,0,0,1-.85-.45c-.6-.34-1.32-.79-2.15-1.35S51.45,99.65,50.59,99s-1.7-1.32-2.5-2a21.29,21.29,0,0,1-2-1.75C45.75,95,44.87,94.2,43.44,93s-3.12-2.39-5-3.69a70.33,70.33,0,0,0-6-3.65,23.39,23.39,0,0,0-5.65-2.3.88.88,0,0,1-.75-1,12,12,0,0,1,.15-1.4c.13-.8.31-1.8.55-3l.7-3.71c.23-1.26.48-2.5.75-3.69s.53-2.24.8-3.1c.2-.6.56-2.1,1.1-4.5s1.06-5.07,1.6-8,.93-5.77,1.2-8.5a19,19,0,0,0-.1-6c-.14-.6-.1-.9.1-.9s.23.08.3.25a1.15,1.15,0,0,0,.3.44,13.66,13.66,0,0,1,1.7,4.11,27.06,27.06,0,0,1,.75,5,35.35,35.35,0,0,1-.1,5.25,29.62,29.62,0,0,1-.75,4.5q-1.11,4.2-2.5,8.34t-3,8.36c.73-1.07,1.43-2.09,2.1-3s1.26-1.89,1.8-2.75l.1-.5q1-4.8,2.45-9.7a43.16,43.16,0,0,0,1.65-10.61c.13-.33.23-.5.3-.5s.13.07.2.21.13.26.2.4a16,16,0,0,1,.8,7,76.14,76.14,0,0,1-1.2,9c.8-.67,1.58-1.3,2.35-1.9s1.61-1.2,2.55-1.81q3.8-2.6,7.8-5c2.66-1.59,5.25-3.23,7.75-4.89s4.81-3.37,7-5.11a32.05,32.05,0,0,0,5.5-5.69c.2-.2.33-.24.4-.1s.08.08,0,.25a1.49,1.49,0,0,0,0,.35,20.45,20.45,0,0,1-4.55,7.25,48.36,48.36,0,0,1-6.9,5.85q-3.85,2.7-8.05,5.09t-8,5.11a51.31,51.31,0,0,0-8.8,7.6A35.26,35.26,0,0,0,28.39,82.28Zm4.8-.59c-.34,0-.79,0-1.35,0a7.07,7.07,0,0,0-1.55,0,11.59,11.59,0,0,1,.95-1.6c.36-.54.71-1.07,1.05-1.6s.88-1.12,1.45-1.75A18.32,18.32,0,0,1,35.44,75a7.7,7.7,0,0,1,1.5-1.09c.43-.24.71-.22.85,0,.06.06,0,.23-.15.5s-.39.58-.65,1l-.75,1a3.49,3.49,0,0,0-.45.65,13.31,13.31,0,0,0-1.6,2.44C33.85,80.24,33.52,81,33.19,81.69Zm38.3,27.09a.46.46,0,0,1-.55.06c-.24-.1-.49-.22-.75-.35a28.68,28.68,0,0,1-5.45-3.21,63.12,63.12,0,0,1-4.95-4.09c-1.6-1.47-3.19-3-4.75-4.55S51.89,93.52,50.29,92q-1.71-1.6-3.6-3.3a49.47,49.47,0,0,0-3.9-3.16A30.07,30.07,0,0,0,38.64,83a14.65,14.65,0,0,0-4.35-1.34,22,22,0,0,1,4.2-4.3,77,77,0,0,1,6.3-4.7c2.26-1.54,4.5-3,6.7-4.41s4-2.53,5.4-3.39q3.49-2.2,7-4.7a34.39,34.39,0,0,0,6.55-6.1c.2-.27.4-.37.6-.31a.72.72,0,0,1-.1.36.58.58,0,0,0-.1.35,11.75,11.75,0,0,1-3,5.25A48.11,48.11,0,0,1,62.39,65q-3.11,2.49-6.3,4.65T51,73.09c-1.2.8-2.45,1.56-3.75,2.3s-2.62,1.45-4,2.14-2.62,1.34-3.85,1.91L36,81a14.1,14.1,0,0,1,5.95,1.6,49.78,49.78,0,0,1,6.65,3.85,63.33,63.33,0,0,1,6.1,4.7c1.86,1.63,3.3,3,4.3,4q3.19,3.5,6.35,6.8t5.55,5.7C71.42,108.22,71.62,108.59,71.49,108.78ZM72,45.19a9.87,9.87,0,0,1-.85,3.8,28,28,0,0,1-2,3.9,21.88,21.88,0,0,1-2.7,3.45,22.15,22.15,0,0,1-2.9,2.55,83.94,83.94,0,0,1-8.35,5.35,75.27,75.27,0,0,1-8.85,4.25l-.9.35c-.47.16-.77.18-.9,0s0-.39.3-.75a4.52,4.52,0,0,1,.8-.75c.46-.47,1.08-1,1.85-1.7s1.56-1.32,2.4-1.95,1.66-1.25,2.5-1.85a15.21,15.21,0,0,1,2.25-1.4q.69-.41,3.15-2.25T63,53.94q2.79-2.46,5.25-4.95a13.65,13.65,0,0,0,3.05-4.1c.26-.47.46-.64.6-.5a.59.59,0,0,1,.1.39Zm-7.8,63.2a17.27,17.27,0,0,1,1.75.35,16.09,16.09,0,0,1,1.65.45q2.59.69,4.35,1a28,28,0,0,0,4.15.45h.55c.23,0,.35.06.35.2s-.34.43-1,.5a13.37,13.37,0,0,1-2.1.2c-.6,0-1.37,0-2.3-.1-.54-.07-1.17-.17-1.9-.3a19.12,19.12,0,0,1-2.2-.55c-.74-.24-1.42-.47-2-.7a3.88,3.88,0,0,1-1.35-.75c-.27-.27-.37-.5-.3-.7S63.92,108.39,64.19,108.39Z" />
  <path
    d="M119.79,73.69a42.85,42.85,0,0,1-6.05,10,109.45,109.45,0,0,1-8.35,9.25q-4.5,4.44-9.25,8.45T87.49,109a1.83,1.83,0,0,1-2,.15,4.47,4.47,0,0,1-1.85-1.36,19,19,0,0,1-3.1-6.29,32.31,32.31,0,0,1-1.2-7.25,44.11,44.11,0,0,1,.25-7.6,58.76,58.76,0,0,1,1.35-7.45q2-8.31,4.55-16a103.43,103.43,0,0,0,3.75-14.75,32.74,32.74,0,0,0-9.65,2.45q-4.26,1.84-5.65,4.44,0,.21-.15.21c-.1,0-.08-.27.05-.8a8.74,8.74,0,0,1,3.9-4.85,24.69,24.69,0,0,1,7.4-3.2,42.49,42.49,0,0,1,9.25-1.36,46,46,0,0,1,9.65.61,19.52,19.52,0,0,1,8.85,3.85,22.25,22.25,0,0,1,5.9,6.9,21,21,0,0,1,2.5,8.45A17.72,17.72,0,0,1,119.79,73.69Zm3.8,1.5c-.07.2-.19.46-.35.8s-.35.68-.55,1a5.52,5.52,0,0,1-.6.91c-.2.23-.34.31-.4.25.13-.67.25-1.2.35-1.6s.2-.79.3-1.15a3.6,3.6,0,0,0,.15-.75,31.91,31.91,0,0,0,0-13.8,21,21,0,0,0-5-9.5,21.84,21.84,0,0,0-8.7-5.5A34.35,34.35,0,0,0,97.89,44a48.67,48.67,0,0,0-8,.65,54.9,54.9,0,0,0-7.2,1.64,31.52,31.52,0,0,0-5.5,2.21,6.83,6.83,0,0,0-2.85,2.29c-.47.81-.6.71-.4-.29q.8-2.61,4.25-4.8a32.21,32.21,0,0,1,8-3.6,46.31,46.31,0,0,1,9.65-1.85,28.28,28.28,0,0,1,9.15.54,34,34,0,0,1,5.4,1.71,32.12,32.12,0,0,1,5.15,2.65,23.57,23.57,0,0,1,4.5,3.7,20.6,20.6,0,0,1,3.45,4.94,24.26,24.26,0,0,1,2.65,11.16A21.3,21.3,0,0,1,123.59,75.19Zm-37,33.59a19.31,19.31,0,0,1-1.25-2.54,17.86,17.86,0,0,1-1.15-4.15,19.27,19.27,0,0,1-.25-2.7,24.46,24.46,0,0,1,0-2.86,14.67,14.67,0,0,1,.3-2.25c.13-.59.33-.89.6-.89.06,0,.15.18.25.55s.2.78.3,1.25a11.15,11.15,0,0,1,.2,1.34c0,.44,0,.75,0,1,.13,1.73.35,3.46.65,5.2a27.7,27.7,0,0,0,1.35,5,102.87,102.87,0,0,1,8-8.7q4.5-4.41,8.8-9a102.49,102.49,0,0,0,7.85-9.34,33.7,33.7,0,0,0,5.15-9.91,15.41,15.41,0,0,0,.45-7.29,19.45,19.45,0,0,0-2.55-6.9,15.11,15.11,0,0,0-5.4-5,24.8,24.8,0,0,0-7.7-2.81c-1.14-.19-2.25-.36-3.35-.5a29.43,29.43,0,0,0-3.45-.19,20.1,20.1,0,0,1,.35,3.25c0,1.16,0,2.31,0,3.44S95.62,57,95.49,58a25,25,0,0,1-.5,2.75c-.94,3.61-2,7.22-3.3,10.86s-2.6,7.11-4,10.45a8.82,8.82,0,0,0-.55.94c-.24.44-.42.66-.55.66s-.2-.27-.2-.8a4,4,0,0,1,.1-1.11c.06-.79.2-1.78.4-2.94s.41-2.35.65-3.56.48-2.38.75-3.54a30.06,30.06,0,0,1,.8-3c.13-.39.38-1.36.75-2.89s.75-3.3,1.15-5.3.78-4.12,1.15-6.35.61-4.29.75-6.15h-1.2a49.85,49.85,0,0,1-1.1,8q-.9,4.09-2.15,8.25c-.84,2.76-1.7,5.55-2.6,8.35s-1.69,5.59-2.35,8.4c-.14.6-.32,1.63-.55,3.1s-.42,3.11-.55,5-.2,3.76-.2,5.8a36,36,0,0,0,.45,5.8,22.88,22.88,0,0,0,1.35,5A5.75,5.75,0,0,0,86.59,108.78Zm43.5-34.29a40,40,0,0,1-5,10.1,58.06,58.06,0,0,1-6.75,8,54.35,54.35,0,0,1-7.4,6.14,83.2,83.2,0,0,1-7.1,4.41c-.67.33-1.24.59-1.7.8s-.7.23-.7.1,0-.29.55-.65l1.55-1.16q5.6-4.5,10.85-9.5a64.67,64.67,0,0,0,9.45-11.39,27.07,27.07,0,0,0,3.2-7.25,30.46,30.46,0,0,0,1.1-8.15,30.84,30.84,0,0,0-1.15-8.3,25.51,25.51,0,0,0-3.55-7.6,25.05,25.05,0,0,0-7.75-7.31A31.61,31.61,0,0,0,105.89,39a39.68,39.68,0,0,0-10.7-.64,50,50,0,0,0-10.6,1.89,4.26,4.26,0,0,0-1,.31c-.1.06-.19,0-.25-.1s0-.27.3-.4.5-.27.7-.4a27.64,27.64,0,0,1,5.7-2.2A34.58,34.58,0,0,1,98,36.28a41,41,0,0,1,9.4.75,36.22,36.22,0,0,1,10.1,3.66A23.65,23.65,0,0,1,126,48.28a30.29,30.29,0,0,1,4.25,9.46,33.08,33.08,0,0,1,1,9.4A26.24,26.24,0,0,1,130.09,74.49Zm-19.9,18c.06.06-.07.33-.4.79s-.75,1-1.25,1.56L107,96.53c-.5.57-.85,1-1.05,1.16l-4.25,4.25a28.4,28.4,0,0,1-4.45,3.65l-9,5.69a3.56,3.56,0,0,1-.55.21.84.84,0,0,1-.55,0,.23.23,0,0,1-.15-.3,1.7,1.7,0,0,1,.15-.41,1.28,1.28,0,0,1,.3-.39q1.7-1.2,3.85-3c1.43-1.2,2.91-2.44,4.45-3.7q1.69-1.31,4-3.3c1.56-1.34,3.1-2.61,4.6-3.8s2.8-2.22,3.9-3.06S110.05,92.35,110.19,92.49ZM98.29,51a14.34,14.34,0,0,1,.95,6.79,65.32,65.32,0,0,1-1.15,8.75c-.6,3-1.29,6-2,8.75s-1.35,5.07-1.75,6.81c-.8,3.19-1.77,6.4-2.9,9.6s-2.07,6-2.8,8.4c-.34.93-.57,1.4-.7,1.4s-.3-.19-.3-.55v-1a69.57,69.57,0,0,1,2.15-14.61q1.85-7.19,4.05-14.59c.86-3,1.7-6.14,2.5-9.41A51.48,51.48,0,0,0,97.69,51c0-.47.06-.74.2-.8s.13.09.2.3A3.05,3.05,0,0,0,98.29,51Z" />
</svg>
