<svg xmlns="http://www.w3.org/2000/svg" focusable="false" viewBox="0 0 1440 320" preserveAspectRatio="none">
  <path fill="#000" stroke="#000" fill-opacity="1"
    d="M0,96L6.2,80C12.3,64,25,32,37,64C49.2,96,62,192,74,224C86.2,256,98,224,111,208C123.1,192,135,192,148,181.3C160,171,172,149,185,160C196.9,171,209,213,222,229.3C233.8,245,246,235,258,218.7C270.8,203,283,181,295,165.3C307.7,149,320,139,332,122.7C344.6,107,357,85,369,80C381.5,75,394,85,406,85.3C418.5,85,431,75,443,101.3C455.4,128,468,192,480,202.7C492.3,213,505,171,517,165.3C529.2,160,542,192,554,202.7C566.2,213,578,203,591,165.3C603.1,128,615,64,628,64C640,64,652,128,665,133.3C676.9,139,689,85,702,64C713.8,43,726,53,738,96C750.8,139,763,213,775,218.7C787.7,224,800,160,812,128C824.6,96,837,96,849,128C861.5,160,874,224,886,261.3C898.5,299,911,309,923,277.3C935.4,245,948,171,960,154.7C972.3,139,985,181,997,213.3C1009.2,245,1022,267,1034,282.7C1046.2,299,1058,309,1071,266.7C1083.1,224,1095,128,1108,106.7C1120,85,1132,139,1145,149.3C1156.9,160,1169,128,1182,117.3C1193.8,107,1206,117,1218,149.3C1230.8,181,1243,235,1255,213.3C1267.7,192,1280,96,1292,80C1304.6,64,1317,128,1329,160C1341.5,192,1354,192,1366,197.3C1378.5,203,1391,213,1403,234.7C1415.4,256,1428,288,1434,304L1440,320L1440,320L1433.8,320C1427.7,320,1415,320,1403,320C1390.8,320,1378,320,1366,320C1353.8,320,1342,320,1329,320C1316.9,320,1305,320,1292,320C1280,320,1268,320,1255,320C1243.1,320,1231,320,1218,320C1206.2,320,1194,320,1182,320C1169.2,320,1157,320,1145,320C1132.3,320,1120,320,1108,320C1095.4,320,1083,320,1071,320C1058.5,320,1046,320,1034,320C1021.5,320,1009,320,997,320C984.6,320,972,320,960,320C947.7,320,935,320,923,320C910.8,320,898,320,886,320C873.8,320,862,320,849,320C836.9,320,825,320,812,320C800,320,788,320,775,320C763.1,320,751,320,738,320C726.2,320,714,320,702,320C689.2,320,677,320,665,320C652.3,320,640,320,628,320C615.4,320,603,320,591,320C578.5,320,566,320,554,320C541.5,320,529,320,517,320C504.6,320,492,320,480,320C467.7,320,455,320,443,320C430.8,320,418,320,406,320C393.8,320,382,320,369,320C356.9,320,345,320,332,320C320,320,308,320,295,320C283.1,320,271,320,258,320C246.2,320,234,320,222,320C209.2,320,197,320,185,320C172.3,320,160,320,148,320C135.4,320,123,320,111,320C98.5,320,86,320,74,320C61.5,320,49,320,37,320C24.6,320,12,320,6,320L0,320Z" />
</svg>
