<svg xmlns="http://www.w3.org/2000/svg" focusable="false" viewBox="0 0 1440 320" preserveAspectRatio="none">
  <path fill="#fff" stroke="#000" fill-opacity="1" d="M0,64L6.2,74.7C12.3,85,25,107,37,144C49.2,181,62,235,74,224C86.2,213,98,139,111,122.7C123.1,107,135,149,148,170.7C160,192,172,192,185,165.3C196.9,139,209,85,222,74.7C233.8,64,246,96,258,101.3C270.8,107,283,85,295,90.7C307.7,96,320,128,332,128C344.6,128,357,96,369,85.3C381.5,75,394,85,406,106.7C418.5,128,431,160,443,186.7C455.4,213,468,235,480,218.7C492.3,203,505,149,517,138.7C529.2,128,542,160,554,181.3C566.2,203,578,213,591,192C603.1,171,615,117,628,80C640,43,652,21,665,37.3C676.9,53,689,107,702,112C713.8,117,726,75,738,74.7C750.8,75,763,117,775,128C787.7,139,800,117,812,128C824.6,139,837,181,849,202.7C861.5,224,874,224,886,202.7C898.5,181,911,139,923,149.3C935.4,160,948,224,960,256C972.3,288,985,288,997,272C1009.2,256,1022,224,1034,192C1046.2,160,1058,128,1071,101.3C1083.1,75,1095,53,1108,85.3C1120,117,1132,203,1145,240C1156.9,277,1169,267,1182,266.7C1193.8,267,1206,277,1218,277.3C1230.8,277,1243,267,1255,234.7C1267.7,203,1280,149,1292,154.7C1304.6,160,1317,224,1329,224C1341.5,224,1354,160,1366,160C1378.5,160,1391,224,1403,208C1415.4,192,1428,96,1434,48L1440,0L1440,320L1433.8,320C1427.7,320,1415,320,1403,320C1390.8,320,1378,320,1366,320C1353.8,320,1342,320,1329,320C1316.9,320,1305,320,1292,320C1280,320,1268,320,1255,320C1243.1,320,1231,320,1218,320C1206.2,320,1194,320,1182,320C1169.2,320,1157,320,1145,320C1132.3,320,1120,320,1108,320C1095.4,320,1083,320,1071,320C1058.5,320,1046,320,1034,320C1021.5,320,1009,320,997,320C984.6,320,972,320,960,320C947.7,320,935,320,923,320C910.8,320,898,320,886,320C873.8,320,862,320,849,320C836.9,320,825,320,812,320C800,320,788,320,775,320C763.1,320,751,320,738,320C726.2,320,714,320,702,320C689.2,320,677,320,665,320C652.3,320,640,320,628,320C615.4,320,603,320,591,320C578.5,320,566,320,554,320C541.5,320,529,320,517,320C504.6,320,492,320,480,320C467.7,320,455,320,443,320C430.8,320,418,320,406,320C393.8,320,382,320,369,320C356.9,320,345,320,332,320C320,320,308,320,295,320C283.1,320,271,320,258,320C246.2,320,234,320,222,320C209.2,320,197,320,185,320C172.3,320,160,320,148,320C135.4,320,123,320,111,320C98.5,320,86,320,74,320C61.5,320,49,320,37,320C24.6,320,12,320,6,320L0,320Z"/>
</svg>
